<svg width="58" height="57" viewBox="0 0 58 57" fill="none" xmlns="http://www.w3.org/2000/svg">
<g filter="url(#filter0_dddi_81_223)">
<g clip-path="url(#clip0_81_223)">
<path d="M5 22.2C5 15.4794 5 12.1191 6.30792 9.55211C7.4584 7.29417 9.29417 5.4584 11.5521 4.30792C14.1191 3 17.4794 3 24.2 3H33.8C40.5206 3 43.8809 3 46.4479 4.30792C48.7058 5.4584 50.5416 7.29417 51.6921 9.55211C53 12.1191 53 15.4794 53 22.2V31.8C53 38.5206 53 41.8809 51.6921 44.4479C50.5416 46.7058 48.7058 48.5416 46.4479 49.6921C43.8809 51 40.5206 51 33.8 51H24.2C17.4794 51 14.1191 51 11.5521 49.6921C9.29417 48.5416 7.4584 46.7058 6.30792 44.4479C5 41.8809 5 38.5206 5 31.8V22.2Z" fill="white"/>
<path d="M5 22.2C5 15.4794 5 12.1191 6.30792 9.55211C7.4584 7.29417 9.29417 5.4584 11.5521 4.30792C14.1191 3 17.4794 3 24.2 3H33.8C40.5206 3 43.8809 3 46.4479 4.30792C48.7058 5.4584 50.5416 7.29417 51.6921 9.55211C53 12.1191 53 15.4794 53 22.2V31.8C53 38.5206 53 41.8809 51.6921 44.4479C50.5416 46.7058 48.7058 48.5416 46.4479 49.6921C43.8809 51 40.5206 51 33.8 51H24.2C17.4794 51 14.1191 51 11.5521 49.6921C9.29417 48.5416 7.4584 46.7058 6.30792 44.4479C5 41.8809 5 38.5206 5 31.8V22.2Z" fill="url(#paint0_linear_81_223)" fill-opacity="0.2"/>
<g opacity="0.14" clip-path="url(#clip1_81_223)">
<path fill-rule="evenodd" clip-rule="evenodd" d="M28.9417 3H29.0582V5.94185C31.8394 5.94938 34.4937 6.49604 36.9223 7.48282V3H37.0388V7.53057C39.1008 8.38289 40.9979 9.55323 42.669 10.9805H44.9029V3H45.0194V10.9805H53V11.097H45.0194V13.3309C46.4467 15.002 47.617 16.899 48.4694 18.9609H53V19.0774H48.5171C49.5039 21.506 50.0506 24.1603 50.0582 26.9414H53V27.0579H50.0582C50.0507 29.839 49.5041 32.4933 48.5174 34.9219H53V35.0384H48.4697C47.6173 37.1006 46.4468 38.9979 45.0194 40.6691V42.9023H53V43.0188H45.0194V51H44.9029V43.0188H42.6698C40.9986 44.4464 39.1012 45.617 37.0388 46.4695V51H36.9223V46.5172C34.4937 47.504 31.8394 48.0507 29.0582 48.0582V51H28.9417V48.0582C26.1606 48.0507 23.5063 47.504 21.0777 46.5172V51H20.9612V46.4695C18.8988 45.617 17.0015 44.4464 15.3302 43.0188H13.0971V51H12.9806V43.0188H5V42.9023H12.9806V40.6691C11.5532 38.9979 10.3827 37.1006 9.53035 35.0384H5V34.9219H9.48261C8.4959 32.4933 7.94931 29.839 7.94183 27.0579H5V26.9414H7.94183C7.94941 24.1603 8.4961 21.506 9.4829 19.0774H5V18.9609H9.53065C10.383 16.899 11.5533 15.002 12.9806 13.3309V11.097H5V10.9805H12.9806V3H13.0971V10.9805H15.331C17.0021 9.55323 18.8992 8.38289 20.9612 7.53057V3H21.0777V7.48282C23.5063 6.49604 26.1606 5.94938 28.9417 5.94185V3ZM28.9417 6.05836C26.1594 6.06594 23.5046 6.61612 21.0777 7.60867V10.9805H28.9417V6.05836ZM20.9612 7.65673C18.9706 8.48493 17.1353 9.61145 15.5111 10.9805H20.9612V7.65673ZM15.1958 11.097H13.0971V13.1957C13.7466 12.448 14.4481 11.7465 15.1958 11.097ZM13.0971 13.374C13.7968 12.5581 14.5582 11.7967 15.3741 11.097H20.9612V18.9609H13.0971V13.374ZM12.9806 13.511C11.6115 15.1352 10.485 16.9704 9.65681 18.9609H12.9806V13.511ZM9.60875 19.0774C8.61618 21.5043 8.06596 24.1591 8.05833 26.9414H12.9806V19.0774H9.60875ZM8.05833 27.0579C8.06586 29.8402 8.61598 32.495 9.60845 34.9219H12.9806V27.0579H8.05833ZM9.65651 35.0384C10.4848 37.0292 11.6114 38.8647 12.9806 40.4891V35.0384H9.65651ZM13.0971 40.8044V42.9023H15.1949C14.4476 42.253 13.7464 41.5518 13.0971 40.8044ZM15.3732 42.9023C14.5577 42.2028 13.7965 41.4417 13.0971 40.6261V35.0384H20.9612V42.9023H15.3732ZM15.5102 43.0188C17.1346 44.3882 18.9702 45.515 20.9612 46.3433V43.0188H15.5102ZM21.0777 46.3914C23.5046 47.3839 26.1594 47.9341 28.9417 47.9417V43.0188H21.0777V46.3914ZM29.0582 47.9417C31.8406 47.9341 34.4954 47.3839 36.9223 46.3914V43.0188H29.0582V47.9417ZM37.0388 46.3433C39.0298 45.515 40.8654 44.3882 42.4898 43.0188H37.0388V46.3433ZM42.8051 42.9023H44.9029V40.8044C44.2536 41.5518 43.5524 42.253 42.8051 42.9023ZM44.9029 40.6261C44.2035 41.4417 43.4423 42.2028 42.6268 42.9023H37.0388V35.0384H44.9029V40.6261ZM45.0194 40.4891C46.3886 38.8647 47.5153 37.0292 48.3435 35.0384H45.0194V40.4891ZM48.3916 34.9219C49.384 32.495 49.9341 29.8402 49.9417 27.0579H45.0194V34.9219H48.3916ZM49.9417 26.9414C49.934 24.1591 49.3838 21.5043 48.3913 19.0774H45.0194V26.9414H49.9417ZM48.3432 18.9609C47.515 16.9704 46.3885 15.1352 45.0194 13.511V18.9609H48.3432ZM44.9029 13.1957V11.097H42.8042C43.5519 11.7465 44.2534 12.448 44.9029 13.1957ZM42.6259 11.097C43.4418 11.7967 44.2032 12.5581 44.9029 13.374V18.9609H37.0388V11.097H42.6259ZM42.4889 10.9805C40.8647 9.61145 39.0294 8.48493 37.0388 7.65673V10.9805H42.4889ZM36.9223 7.60867C34.4954 6.61611 31.8406 6.06593 29.0582 6.05836V10.9805H36.9223V7.60867ZM21.0777 11.097H28.9417V18.9609H21.0777V11.097ZM36.9223 11.097H29.0582V18.9609H36.9223V11.097ZM20.9612 34.9219H13.0971V27.0579H20.9612V34.9219ZM21.0777 35.0384V42.9023H28.9417V35.0384H21.0777ZM28.9417 34.9219H21.0777V27.0579H28.9417V34.9219ZM29.0582 35.0384V42.9023H36.9223V35.0384H29.0582ZM36.9223 34.9219H29.0582V27.0579H36.9223V34.9219ZM44.9029 34.9219H37.0388V27.0579H44.9029V34.9219ZM21.0777 19.0774H28.9417V26.9414H21.0777V19.0774ZM13.0971 19.0774L20.9612 19.0774V26.9414H13.0971V19.0774ZM36.9223 19.0774H29.0582V26.9414H36.9223V19.0774ZM37.0388 26.9414V19.0774H44.9029V26.9414H37.0388Z" fill="#0A0D12"/>
</g>
<g filter="url(#filter1_dd_81_223)">
<rect x="17" y="15" width="24" height="24" rx="12" fill="url(#paint1_linear_81_223)"/>
<rect x="17" y="15" width="24" height="24" rx="12" fill="url(#paint2_radial_81_223)" fill-opacity="0.08"/>
<rect x="17" y="15" width="24" height="24" rx="12" fill="url(#paint3_radial_81_223)" fill-opacity="0.18"/>
<rect x="17" y="15" width="24" height="24" rx="12" fill="url(#paint4_radial_81_223)" fill-opacity="0.05"/>
<path d="M36.2 21.0621C36.2 23.0847 32.9765 21.7945 29 21.7945C25.0236 21.7945 21.8 23.0847 21.8 21.0621C21.8 19.0396 25.0236 17.4 29 17.4C32.9765 17.4 36.2 19.0396 36.2 21.0621Z" fill="url(#paint5_linear_81_223)" fill-opacity="0.4"/>
</g>
<path d="M5 27H53V31.8C53 38.5206 53 41.8809 51.6921 44.4479C50.5416 46.7058 48.7058 48.5416 46.4479 49.6921C43.8809 51 40.5206 51 33.8 51H24.2C17.4794 51 14.1191 51 11.5521 49.6921C9.29417 48.5416 7.4584 46.7058 6.30792 44.4479C5 41.8809 5 38.5206 5 31.8V27Z" fill="white" fill-opacity="0.2"/>
</g>
<path d="M5.15 22.2C5.15 18.8372 5.15012 16.3241 5.31299 14.3306C5.47572 12.3389 5.80018 10.879 6.44157 9.62021C7.57767 7.39049 9.39049 5.57767 11.6202 4.44157C12.879 3.80018 14.3389 3.47572 16.3306 3.31299C18.3241 3.15012 20.8372 3.15 24.2 3.15H33.8C37.1628 3.15 39.6759 3.15012 41.6694 3.31299C43.6611 3.47572 45.121 3.80018 46.3798 4.44157C48.6095 5.57767 50.4223 7.39049 51.5584 9.62021C52.1998 10.879 52.5243 12.3389 52.687 14.3306C52.8499 16.3241 52.85 18.8372 52.85 22.2V31.8C52.85 35.1628 52.8499 37.6759 52.687 39.6694C52.5243 41.6611 52.1998 43.121 51.5584 44.3798C50.4223 46.6095 48.6095 48.4223 46.3798 49.5584C45.121 50.1998 43.6611 50.5243 41.6694 50.687C39.6759 50.8499 37.1628 50.85 33.8 50.85H24.2C20.8372 50.85 18.3241 50.8499 16.3306 50.687C14.3389 50.5243 12.879 50.1998 11.6202 49.5584C9.39049 48.4223 7.57767 46.6095 6.44157 44.3798C5.80018 43.121 5.47572 41.6611 5.31299 39.6694C5.15012 37.6759 5.15 35.1628 5.15 31.8V22.2Z" stroke="#0A0D12" stroke-opacity="0.12" stroke-width="0.3"/>
</g>
<defs>
<filter id="filter0_dddi_81_223" x="0.5" y="0" width="57" height="57" filterUnits="userSpaceOnUse" color-interpolation-filters="sRGB">
<feFlood flood-opacity="0" result="BackgroundImageFix"/>
<feColorMatrix in="SourceAlpha" type="matrix" values="0 0 0 0 0 0 0 0 0 0 0 0 0 0 0 0 0 0 127 0" result="hardAlpha"/>
<feOffset dy="1.5"/>
<feGaussianBlur stdDeviation="1.5"/>
<feColorMatrix type="matrix" values="0 0 0 0 0.0392157 0 0 0 0 0.0509804 0 0 0 0 0.0705882 0 0 0 0.06 0"/>
<feBlend mode="normal" in2="BackgroundImageFix" result="effect1_dropShadow_81_223"/>
<feColorMatrix in="SourceAlpha" type="matrix" values="0 0 0 0 0 0 0 0 0 0 0 0 0 0 0 0 0 0 127 0" result="hardAlpha"/>
<feOffset dy="1.5"/>
<feGaussianBlur stdDeviation="2.25"/>
<feColorMatrix type="matrix" values="0 0 0 0 0.0392157 0 0 0 0 0.0509804 0 0 0 0 0.0705882 0 0 0 0.1 0"/>
<feBlend mode="normal" in2="effect1_dropShadow_81_223" result="effect2_dropShadow_81_223"/>
<feColorMatrix in="SourceAlpha" type="matrix" values="0 0 0 0 0 0 0 0 0 0 0 0 0 0 0 0 0 0 127 0" result="hardAlpha"/>
<feMorphology radius="0.75" operator="erode" in="SourceAlpha" result="effect3_dropShadow_81_223"/>
<feOffset dy="1.5"/>
<feGaussianBlur stdDeviation="0.75"/>
<feComposite in2="hardAlpha" operator="out"/>
<feColorMatrix type="matrix" values="0 0 0 0 0.0392157 0 0 0 0 0.0509804 0 0 0 0 0.0705882 0 0 0 0.13 0"/>
<feBlend mode="normal" in2="effect2_dropShadow_81_223" result="effect3_dropShadow_81_223"/>
<feBlend mode="normal" in="SourceGraphic" in2="effect3_dropShadow_81_223" result="shape"/>
<feColorMatrix in="SourceAlpha" type="matrix" values="0 0 0 0 0 0 0 0 0 0 0 0 0 0 0 0 0 0 127 0" result="hardAlpha"/>
<feOffset dy="-0.75"/>
<feGaussianBlur stdDeviation="0.375"/>
<feComposite in2="hardAlpha" operator="arithmetic" k2="-1" k3="1"/>
<feColorMatrix type="matrix" values="0 0 0 0 0.0392157 0 0 0 0 0.0509804 0 0 0 0 0.0705882 0 0 0 0.1 0"/>
<feBlend mode="normal" in2="shape" result="effect4_innerShadow_81_223"/>
</filter>
<filter id="filter1_dd_81_223" x="12.5" y="12" width="33" height="33" filterUnits="userSpaceOnUse" color-interpolation-filters="sRGB">
<feFlood flood-opacity="0" result="BackgroundImageFix"/>
<feColorMatrix in="SourceAlpha" type="matrix" values="0 0 0 0 0 0 0 0 0 0 0 0 0 0 0 0 0 0 127 0" result="hardAlpha"/>
<feOffset dy="1.5"/>
<feGaussianBlur stdDeviation="1.5"/>
<feColorMatrix type="matrix" values="0 0 0 0 0.0392157 0 0 0 0 0.0509804 0 0 0 0 0.0705882 0 0 0 0.06 0"/>
<feBlend mode="normal" in2="BackgroundImageFix" result="effect1_dropShadow_81_223"/>
<feColorMatrix in="SourceAlpha" type="matrix" values="0 0 0 0 0 0 0 0 0 0 0 0 0 0 0 0 0 0 127 0" result="hardAlpha"/>
<feOffset dy="1.5"/>
<feGaussianBlur stdDeviation="2.25"/>
<feColorMatrix type="matrix" values="0 0 0 0 0.0392157 0 0 0 0 0.0509804 0 0 0 0 0.0705882 0 0 0 0.1 0"/>
<feBlend mode="normal" in2="effect1_dropShadow_81_223" result="effect2_dropShadow_81_223"/>
<feBlend mode="normal" in="SourceGraphic" in2="effect2_dropShadow_81_223" result="shape"/>
</filter>
<linearGradient id="paint0_linear_81_223" x1="29" y1="3" x2="29" y2="51" gradientUnits="userSpaceOnUse">
<stop stop-color="white"/>
<stop offset="1" stop-color="#0A0D12"/>
</linearGradient>
<linearGradient id="paint1_linear_81_223" x1="23" y1="39" x2="35" y2="15" gradientUnits="userSpaceOnUse">
<stop stop-color="#53389E"/>
<stop offset="1" stop-color="#6941C6"/>
</linearGradient>
<radialGradient id="paint2_radial_81_223" cx="0" cy="0" r="1" gradientUnits="userSpaceOnUse" gradientTransform="translate(29 15) rotate(90) scale(18)">
<stop stop-color="white" stop-opacity="0"/>
<stop offset="0.5" stop-color="white" stop-opacity="0"/>
<stop offset="0.99" stop-color="white"/>
<stop offset="1" stop-color="white" stop-opacity="0"/>
</radialGradient>
<radialGradient id="paint3_radial_81_223" cx="0" cy="0" r="1" gradientUnits="userSpaceOnUse" gradientTransform="translate(29 27) rotate(90) scale(12)">
<stop offset="0.746599" stop-color="white" stop-opacity="0"/>
<stop offset="1" stop-color="white"/>
</radialGradient>
<radialGradient id="paint4_radial_81_223" cx="0" cy="0" r="1" gradientUnits="userSpaceOnUse" gradientTransform="translate(29 21.9) rotate(90) scale(10.5)">
<stop stop-color="white"/>
<stop offset="1" stop-color="white" stop-opacity="0"/>
</radialGradient>
<linearGradient id="paint5_linear_81_223" x1="29" y1="17.4" x2="29" y2="22.2" gradientUnits="userSpaceOnUse">
<stop stop-color="white"/>
<stop offset="1" stop-color="white" stop-opacity="0.1"/>
</linearGradient>
<clipPath id="clip0_81_223">
<path d="M5 22.2C5 15.4794 5 12.1191 6.30792 9.55211C7.4584 7.29417 9.29417 5.4584 11.5521 4.30792C14.1191 3 17.4794 3 24.2 3H33.8C40.5206 3 43.8809 3 46.4479 4.30792C48.7058 5.4584 50.5416 7.29417 51.6921 9.55211C53 12.1191 53 15.4794 53 22.2V31.8C53 38.5206 53 41.8809 51.6921 44.4479C50.5416 46.7058 48.7058 48.5416 46.4479 49.6921C43.8809 51 40.5206 51 33.8 51H24.2C17.4794 51 14.1191 51 11.5521 49.6921C9.29417 48.5416 7.4584 46.7058 6.30792 44.4479C5 41.8809 5 38.5206 5 31.8V22.2Z" fill="white"/>
</clipPath>
<clipPath id="clip1_81_223">
<rect width="48" height="48" fill="white" transform="translate(5 3)"/>
</clipPath>
</defs>
</svg>
